<svg xmlns="http://www.w3.org/2000/svg" xmlns:xlink="http://www.w3.org/1999/xlink" width="500" zoomAndPan="magnify" viewBox="0 0 375 374.999991" height="500" preserveAspectRatio="xMidYMid meet" version="1.0"><defs><clipPath id="b7c8f56b7d"><path d="M 11.210938 0 L 363.789062 0 L 363.789062 352.574219 L 11.210938 352.574219 Z M 11.210938 0 " clip-rule="nonzero"/></clipPath><clipPath id="cbf93611b5"><path d="M 187.5 0 C 90.140625 0 11.210938 78.925781 11.210938 176.289062 C 11.210938 273.648438 90.140625 352.574219 187.5 352.574219 C 284.859375 352.574219 363.789062 273.648438 363.789062 176.289062 C 363.789062 78.925781 284.859375 0 187.5 0 Z M 187.5 0 " clip-rule="nonzero"/></clipPath><clipPath id="20095e88b9"><path d="M 0.210938 0 L 352.789062 0 L 352.789062 352.574219 L 0.210938 352.574219 Z M 0.210938 0 " clip-rule="nonzero"/></clipPath><clipPath id="a79182cdfe"><path d="M 176.5 0 C 79.140625 0 0.210938 78.925781 0.210938 176.289062 C 0.210938 273.648438 79.140625 352.574219 176.5 352.574219 C 273.859375 352.574219 352.789062 273.648438 352.789062 176.289062 C 352.789062 78.925781 273.859375 0 176.5 0 Z M 176.5 0 " clip-rule="nonzero"/></clipPath><clipPath id="7d0a2c92b4"><rect x="0" width="353" y="0" height="353"/></clipPath><clipPath id="24976b18d5"><path d="M 59.988281 197 L 314.988281 197 L 314.988281 375 L 59.988281 375 Z M 59.988281 197 " clip-rule="nonzero"/></clipPath><clipPath id="0d21d6b7f3"><path d="M 121 28.617188 L 251 28.617188 L 251 136 L 121 136 Z M 121 28.617188 " clip-rule="nonzero"/></clipPath><clipPath id="e05d8d979d"><path d="M 59.988281 252 L 314.988281 252 L 314.988281 375 L 59.988281 375 Z M 59.988281 252 " clip-rule="nonzero"/></clipPath></defs><g clip-path="url(#b7c8f56b7d)"><g clip-path="url(#cbf93611b5)"><g transform="matrix(1, 0, 0, 1, 11, 0)"><g clip-path="url(#7d0a2c92b4)"><g clip-path="url(#20095e88b9)"><g clip-path="url(#a79182cdfe)"><path fill="#7eef90" d="M 0.210938 0 L 352.789062 0 L 352.789062 352.574219 L 0.210938 352.574219 Z M 0.210938 0 " fill-opacity="1" fill-rule="nonzero"/></g></g></g></g></g></g><g clip-path="url(#24976b18d5)"><path fill="#fcbe8f" d="M 315.003906 375.085938 L 59.96875 375.085938 C 59.96875 348.898438 63.574219 293.621094 82.921875 270.664062 C 87.421875 265.335938 95.652344 260.140625 105.046875 255.386719 C 106.175781 254.808594 107.3125 254.25 108.476562 253.691406 C 108.714844 253.585938 108.953125 253.460938 109.195312 253.34375 C 111.972656 252.003906 114.824219 250.714844 117.683594 249.472656 C 134.207031 242.277344 150.871094 236.644531 155.738281 233.980469 C 155.960938 233.855469 156.15625 233.738281 156.332031 233.625 C 156.589844 233.457031 156.792969 233.304688 156.925781 233.171875 C 158.320312 231.804688 159.128906 226.972656 159.597656 221.320312 C 159.742188 219.652344 159.855469 217.929688 159.929688 216.179688 C 160.378906 207.117188 160.183594 197.898438 160.183594 197.898438 L 187.488281 199.246094 L 214.789062 197.898438 C 214.789062 197.898438 214.515625 210.980469 215.375 221.304688 C 215.855469 226.972656 216.664062 231.804688 218.050781 233.179688 C 218.183594 233.3125 218.367188 233.457031 218.617188 233.613281 C 218.757812 233.703125 218.917969 233.800781 219.097656 233.890625 C 223.8125 236.5625 241 242.347656 257.898438 249.746094 C 259.921875 250.644531 261.945312 251.550781 263.945312 252.492188 C 264.671875 252.839844 265.398438 253.175781 266.117188 253.53125 C 267.558594 254.207031 268.988281 254.917969 270.378906 255.617188 C 279.589844 260.308594 287.625 265.425781 292.054688 270.664062 C 311.402344 293.621094 315.003906 348.898438 315.003906 375.085938 Z M 315.003906 375.085938 " fill-opacity="1" fill-rule="nonzero"/></g><path fill="#eba476" d="M 215.375 221.304688 C 186.910156 238.589844 159.9375 216.179688 159.9375 216.179688 C 160.390625 207.117188 160.195312 197.898438 160.195312 197.898438 L 187.496094 199.246094 L 214.800781 197.898438 C 214.789062 197.898438 214.515625 210.972656 215.375 221.304688 Z M 215.375 221.304688 " fill-opacity="1" fill-rule="nonzero"/><path fill="#fcbe8f" d="M 187.488281 35.757812 C 130.832031 35.757812 132.339844 87.046875 132.339844 132.988281 C 132.339844 178.941406 137.367188 216.179688 187.488281 216.179688 C 236.730469 216.179688 242.632812 178.941406 242.632812 132.988281 C 242.632812 87.054688 244.144531 35.757812 187.488281 35.757812 Z M 187.488281 35.757812 " fill-opacity="1" fill-rule="nonzero"/><path fill="#fcbe8f" d="M 238.113281 115.597656 C 238.113281 115.597656 255.6875 112.183594 258.765625 124.84375 C 262.257812 139.1875 258.4375 153.773438 238.113281 153.773438 C 220.765625 153.773438 238.113281 115.597656 238.113281 115.597656 Z M 238.113281 115.597656 " fill-opacity="1" fill-rule="nonzero"/><path fill="#fcbe8f" d="M 136.859375 115.597656 C 136.859375 115.597656 119.289062 112.183594 116.207031 124.84375 C 112.71875 139.1875 116.539062 153.773438 136.859375 153.773438 C 154.210938 153.773438 136.859375 115.597656 136.859375 115.597656 Z M 136.859375 115.597656 " fill-opacity="1" fill-rule="nonzero"/><g clip-path="url(#0d21d6b7f3)"><path fill="#4b3222" d="M 248.246094 115.648438 C 242.082031 115.925781 242.128906 135.652344 242.128906 135.652344 L 237.582031 135.652344 C 237.582031 135.652344 239.054688 115.445312 235.59375 106.835938 C 232.121094 98.230469 233.214844 84.425781 233.214844 84.425781 C 233.214844 84.425781 226.769531 88.796875 199.277344 90.316406 C 171.78125 91.835938 152.683594 73.429688 143.085938 79.113281 C 133.46875 84.816406 140.6875 105.675781 138.40625 111.375 C 136.125 117.0625 137.640625 135.652344 137.640625 135.652344 L 132.351562 135.652344 C 132.351562 135.652344 132.769531 130.085938 132.339844 124.140625 C 131.898438 118.199219 126.890625 115.605469 126.890625 115.605469 C 126.089844 111.492188 121.082031 79.621094 121.082031 67.726562 C 121.082031 55.832031 132.339844 54.445312 132.339844 54.445312 C 132.339844 54.445312 133.078125 50.964844 136.78125 46.558594 C 140.058594 42.648438 145.640625 38.011719 155.105469 34.441406 C 164.011719 31.082031 176.335938 28.648438 193.390625 28.648438 C 225.160156 28.648438 239.738281 44.78125 246.035156 63.160156 C 247.324219 66.882812 248.253906 70.691406 248.921875 74.476562 C 252.640625 95.421875 248.246094 115.648438 248.246094 115.648438 Z M 248.246094 115.648438 " fill-opacity="1" fill-rule="nonzero"/></g><path fill="#231f20" d="M 212.359375 111.757812 C 194.28125 111.757812 191.289062 122.195312 191.058594 131.789062 C 188.074219 130.804688 185.410156 131.300781 183.910156 131.78125 C 183.6875 122.1875 180.6875 111.757812 162.609375 111.757812 C 148.464844 111.757812 141.292969 118.9375 141.292969 133.085938 C 141.292969 144.847656 150.855469 154.414062 162.609375 154.414062 C 174.160156 154.414062 183.589844 145.167969 183.910156 133.683594 C 184.992188 133.265625 187.871094 132.421875 191.046875 133.691406 C 191.367188 145.175781 200.796875 154.414062 212.347656 154.414062 C 224.105469 154.414062 233.667969 144.847656 233.667969 133.085938 C 233.675781 118.925781 226.5 111.757812 212.359375 111.757812 Z M 162.617188 152.628906 C 151.847656 152.628906 143.074219 143.863281 143.074219 133.078125 C 143.074219 119.921875 149.46875 113.527344 162.617188 113.527344 C 179.835938 113.527344 182.160156 123.40625 182.160156 133.078125 C 182.160156 143.863281 173.386719 152.628906 162.617188 152.628906 Z M 212.359375 152.628906 C 201.585938 152.628906 192.816406 143.863281 192.816406 133.078125 C 192.816406 123.414062 195.132812 113.527344 212.359375 113.527344 C 225.507812 113.527344 231.898438 119.921875 231.898438 133.078125 C 231.898438 143.863281 223.128906 152.628906 212.359375 152.628906 Z M 212.359375 152.628906 " fill-opacity="1" fill-rule="nonzero"/><path fill="#ad5e2b" d="M 188.054688 165.8125 C 187.320312 165.8125 186.777344 165.722656 186.722656 165.714844 L 187.015625 163.964844 C 187.699219 164.078125 189.679688 164.175781 190.683594 163.332031 C 191.121094 162.960938 191.332031 162.425781 191.332031 161.691406 C 191.332031 158.003906 187.078125 152.558594 187.035156 152.503906 L 188.429688 151.402344 C 188.617188 151.644531 193.109375 157.390625 193.109375 161.691406 C 193.109375 162.941406 192.664062 163.972656 191.820312 164.691406 C 190.730469 165.617188 189.167969 165.8125 188.054688 165.8125 Z M 188.054688 165.8125 " fill-opacity="1" fill-rule="nonzero"/><path fill="#fdfdfb" d="M 187.488281 185.105469 C 187.488281 185.105469 171.816406 184.828125 165.65625 183.027344 C 165.65625 183.027344 167.980469 196.492188 183.457031 199.488281 C 186.113281 200.003906 188.855469 200.003906 191.511719 199.488281 C 206.984375 196.492188 209.3125 183.027344 209.3125 183.027344 C 203.160156 184.828125 187.488281 185.105469 187.488281 185.105469 Z M 187.488281 185.105469 " fill-opacity="1" fill-rule="nonzero"/><path fill="#070200" d="M 167.539062 133.078125 C 167.539062 133.605469 167.507812 134.128906 167.449219 134.644531 C 167.390625 135.160156 167.304688 135.664062 167.191406 136.152344 C 167.074219 136.636719 166.9375 137.101562 166.769531 137.539062 C 166.601562 137.976562 166.414062 138.382812 166.203125 138.757812 C 165.992188 139.128906 165.761719 139.460938 165.511719 139.753906 C 165.265625 140.046875 165 140.296875 164.726562 140.496094 C 164.449219 140.699219 164.164062 140.851562 163.871094 140.953125 C 163.578125 141.058594 163.28125 141.109375 162.980469 141.109375 C 162.683594 141.109375 162.386719 141.058594 162.09375 140.953125 C 161.800781 140.851562 161.515625 140.699219 161.238281 140.496094 C 160.964844 140.296875 160.699219 140.046875 160.453125 139.753906 C 160.203125 139.460938 159.972656 139.128906 159.761719 138.757812 C 159.550781 138.382812 159.359375 137.976562 159.195312 137.539062 C 159.027344 137.101562 158.886719 136.636719 158.773438 136.152344 C 158.660156 135.664062 158.574219 135.160156 158.515625 134.644531 C 158.457031 134.128906 158.425781 133.605469 158.425781 133.078125 C 158.425781 132.550781 158.457031 132.027344 158.515625 131.511719 C 158.574219 130.996094 158.660156 130.492188 158.773438 130.003906 C 158.886719 129.519531 159.027344 129.054688 159.195312 128.617188 C 159.359375 128.179688 159.550781 127.773438 159.761719 127.398438 C 159.972656 127.027344 160.203125 126.695312 160.453125 126.402344 C 160.699219 126.109375 160.964844 125.859375 161.238281 125.660156 C 161.515625 125.457031 161.800781 125.304688 162.09375 125.203125 C 162.386719 125.097656 162.683594 125.046875 162.980469 125.046875 C 163.28125 125.046875 163.578125 125.097656 163.871094 125.203125 C 164.164062 125.304688 164.449219 125.457031 164.726562 125.660156 C 165 125.859375 165.265625 126.109375 165.511719 126.402344 C 165.761719 126.695312 165.992188 127.027344 166.203125 127.398438 C 166.414062 127.773438 166.601562 128.179688 166.769531 128.617188 C 166.9375 129.054688 167.074219 129.519531 167.191406 130.003906 C 167.304688 130.492188 167.390625 130.996094 167.449219 131.511719 C 167.507812 132.027344 167.539062 132.550781 167.539062 133.078125 Z M 167.539062 133.078125 " fill-opacity="1" fill-rule="nonzero"/><path fill="#070200" d="M 216.546875 133.078125 C 216.546875 133.605469 216.519531 134.128906 216.460938 134.644531 C 216.402344 135.160156 216.316406 135.664062 216.203125 136.152344 C 216.085938 136.636719 215.945312 137.101562 215.78125 137.539062 C 215.613281 137.976562 215.425781 138.382812 215.214844 138.757812 C 215.003906 139.128906 214.773438 139.460938 214.523438 139.753906 C 214.273438 140.046875 214.011719 140.296875 213.738281 140.496094 C 213.460938 140.699219 213.175781 140.851562 212.882812 140.953125 C 212.589844 141.058594 212.292969 141.109375 211.992188 141.109375 C 211.695312 141.109375 211.398438 141.058594 211.105469 140.953125 C 210.8125 140.851562 210.527344 140.699219 210.25 140.496094 C 209.972656 140.296875 209.710938 140.046875 209.464844 139.753906 C 209.214844 139.460938 208.984375 139.128906 208.773438 138.757812 C 208.5625 138.382812 208.371094 137.976562 208.207031 137.539062 C 208.039062 137.101562 207.898438 136.636719 207.785156 136.152344 C 207.671875 135.664062 207.585938 135.160156 207.527344 134.644531 C 207.46875 134.128906 207.4375 133.605469 207.4375 133.078125 C 207.4375 132.550781 207.46875 132.027344 207.527344 131.511719 C 207.585938 130.996094 207.671875 130.492188 207.785156 130.003906 C 207.898438 129.519531 208.039062 129.054688 208.207031 128.617188 C 208.371094 128.179688 208.5625 127.773438 208.773438 127.398438 C 208.984375 127.027344 209.214844 126.695312 209.464844 126.402344 C 209.710938 126.109375 209.972656 125.859375 210.25 125.660156 C 210.527344 125.457031 210.8125 125.304688 211.105469 125.203125 C 211.398438 125.097656 211.695312 125.046875 211.992188 125.046875 C 212.292969 125.046875 212.589844 125.097656 212.882812 125.203125 C 213.175781 125.304688 213.460938 125.457031 213.738281 125.660156 C 214.011719 125.859375 214.273438 126.109375 214.523438 126.402344 C 214.773438 126.695312 215.003906 127.027344 215.214844 127.398438 C 215.425781 127.773438 215.613281 128.179688 215.78125 128.617188 C 215.945312 129.054688 216.085938 129.519531 216.203125 130.003906 C 216.316406 130.492188 216.402344 130.996094 216.460938 131.511719 C 216.519531 132.027344 216.546875 132.550781 216.546875 133.078125 Z M 216.546875 133.078125 " fill-opacity="1" fill-rule="nonzero"/><path fill="#231f20" d="M 149.992188 103.65625 L 149.070312 102.136719 C 160.726562 95.015625 173.28125 100.957031 173.816406 101.214844 L 173.042969 102.8125 C 172.917969 102.75 160.808594 97.039062 149.992188 103.65625 Z M 149.992188 103.65625 " fill-opacity="1" fill-rule="nonzero"/><path fill="#231f20" d="M 224.984375 103.65625 C 214.167969 97.046875 202.058594 102.75 201.941406 102.8125 L 201.171875 101.214844 C 201.703125 100.957031 214.257812 95.015625 225.914062 102.136719 Z M 224.984375 103.65625 " fill-opacity="1" fill-rule="nonzero"/><path fill="#070200" d="M 200.425781 170.839844 C 193.996094 170.457031 187.488281 170.367188 187.488281 170.367188 C 187.488281 170.367188 180.988281 170.464844 174.550781 170.839844 C 166.257812 171.328125 162.867188 174.773438 161.492188 177.324219 C 160.984375 178.257812 161.828125 179.339844 162.839844 179.03125 C 170.078125 176.753906 187.488281 177.644531 187.488281 177.644531 C 187.488281 177.644531 204.898438 176.753906 212.136719 179.03125 C 213.113281 179.332031 213.992188 178.292969 213.511719 177.386719 C 212.164062 174.835938 208.78125 171.335938 200.425781 170.839844 Z M 200.425781 170.839844 " fill-opacity="1" fill-rule="nonzero"/><path fill="#105f9a" d="M 266.128906 253.53125 L 250.289062 285.179688 L 187.488281 348.667969 L 146.371094 317.816406 L 121.082031 281.894531 L 108.476562 253.699219 C 111.484375 252.242188 114.582031 250.832031 117.683594 249.480469 C 134.207031 242.285156 150.871094 236.652344 155.738281 233.988281 C 166.773438 244.53125 184.023438 260.71875 186.875 261.597656 C 189.714844 262.484375 207.546875 245.375 219.097656 233.882812 C 223.8125 236.554688 241 242.339844 257.898438 249.738281 C 260.660156 250.964844 263.429688 252.207031 266.128906 253.53125 Z M 266.128906 253.53125 " fill-opacity="1" fill-rule="nonzero"/><path fill="#e44748" d="M 187.132812 248.316406 L 176.648438 255.457031 L 177.144531 263.605469 L 187.132812 273.039062 L 197.128906 263.605469 L 197.617188 255.457031 Z M 187.132812 248.316406 " fill-opacity="1" fill-rule="nonzero"/><path fill="#e44748" d="M 187.488281 348.667969 L 205.398438 332.101562 L 192.425781 268.632812 L 182.460938 268.632812 L 169.480469 332.101562 L 187.398438 348.667969 L 187.398438 348.765625 L 187.445312 348.71875 L 187.488281 348.765625 Z M 187.488281 348.667969 " fill-opacity="1" fill-rule="nonzero"/><path fill="#1c6fad" d="M 159.101562 226.394531 C 159.101562 226.394531 170.824219 240.820312 187.753906 248.308594 C 187.753906 248.308594 182.152344 262.34375 168.015625 270.691406 C 168.015625 270.691406 153.988281 253.070312 151.21875 236.03125 C 151.210938 236.039062 154.476562 230 159.101562 226.394531 Z M 159.101562 226.394531 " fill-opacity="1" fill-rule="nonzero"/><path fill="#1c6fad" d="M 215.792969 226.394531 C 215.792969 226.394531 204.074219 240.820312 187.140625 248.308594 C 187.140625 248.308594 192.746094 262.34375 206.878906 270.691406 C 206.878906 270.691406 220.90625 253.070312 223.679688 236.03125 C 223.679688 236.039062 220.410156 230 215.792969 226.394531 Z M 215.792969 226.394531 " fill-opacity="1" fill-rule="nonzero"/><g clip-path="url(#e05d8d979d)"><path fill="#ffac43" d="M 315.003906 375.085938 L 59.96875 375.085938 C 59.96875 348.898438 63.574219 293.621094 82.921875 270.664062 C 87.421875 265.335938 95.652344 260.140625 105.046875 255.386719 C 106.175781 254.808594 107.3125 254.25 108.476562 253.691406 C 108.714844 253.585938 108.953125 253.460938 109.195312 253.34375 C 134.355469 314.324219 187.488281 348.667969 187.488281 348.667969 C 225.703125 335.957031 255.820312 271.449219 263.945312 252.484375 C 264.671875 252.828125 265.398438 253.167969 266.117188 253.523438 C 267.558594 254.195312 268.988281 254.90625 270.378906 255.609375 C 279.589844 260.300781 287.625 265.417969 292.054688 270.65625 C 311.402344 293.621094 315.003906 348.898438 315.003906 375.085938 Z M 315.003906 375.085938 " fill-opacity="1" fill-rule="nonzero"/></g><path fill="#7e96bd" d="M 257.898438 249.746094 C 257.898438 249.746094 231.792969 317.542969 187.753906 341.4375 C 143.707031 317.542969 117.683594 249.480469 117.683594 249.480469 C 113.394531 251.355469 109.105469 253.335938 105.046875 255.386719 C 107.855469 263.132812 132.449219 327.285156 185.019531 353.738281 L 187.753906 355.105469 L 190.488281 353.738281 C 242.582031 327.535156 267.203125 264.304688 270.390625 255.617188 C 266.367188 253.574219 262.140625 251.601562 257.898438 249.746094 Z M 257.898438 249.746094 " fill-opacity="1" fill-rule="nonzero"/><path fill="#5e3f2b" d="M 248.921875 74.476562 C 246.726562 74.914062 244.550781 75.285156 242.386719 75.613281 C 239.054688 76.246094 233.851562 76.820312 230.417969 77.140625 C 228.738281 77.417969 226.109375 77.496094 224.371094 77.585938 L 218.289062 77.851562 C 216.203125 77.835938 211.097656 77.71875 209.082031 77.683594 C 203.160156 77.25 196.4375 76.601562 190.605469 75.339844 C 170.078125 71.386719 151.332031 61.171875 136.78125 46.566406 C 140.058594 42.660156 145.640625 38.023438 155.105469 34.449219 C 155.691406 35.117188 156.277344 35.765625 156.890625 36.414062 C 167.660156 47.910156 181.964844 55.761719 197.210938 59.910156 C 201.390625 61.0625 206.265625 61.96875 210.511719 62.691406 C 212.304688 62.886719 216.867188 63.390625 218.707031 63.585938 C 220.445312 63.667969 225.320312 63.90625 227.015625 63.988281 C 231.339844 63.949219 236.703125 63.96875 241 63.550781 C 242.679688 63.453125 244.367188 63.320312 246.042969 63.160156 C 247.324219 66.875 248.261719 70.691406 248.921875 74.476562 Z M 248.921875 74.476562 " fill-opacity="1" fill-rule="nonzero"/></svg>