<svg xmlns="http://www.w3.org/2000/svg" xmlns:xlink="http://www.w3.org/1999/xlink" width="500" zoomAndPan="magnify" viewBox="0 0 375 374.999991" height="500" preserveAspectRatio="xMidYMid meet" version="1.0"><defs><clipPath id="5d5d6e4551"><path d="M 85 30 L 279 30 L 279 156 L 85 156 Z M 85 30 " clip-rule="nonzero"/></clipPath><clipPath id="8437f698ea"><path d="M 101.660156 30.382812 L 278.027344 126.113281 L 262.046875 155.5625 L 85.675781 59.828125 Z M 101.660156 30.382812 " clip-rule="nonzero"/></clipPath><clipPath id="e5ed59d9fa"><path d="M 0.480469 0.238281 L 193 0.238281 L 193 125.761719 L 0.480469 125.761719 Z M 0.480469 0.238281 " clip-rule="nonzero"/></clipPath><clipPath id="ef8b7c365d"><path d="M 16.660156 0.382812 L 193.027344 96.113281 L 177.046875 125.5625 L 0.675781 29.828125 Z M 16.660156 0.382812 " clip-rule="nonzero"/></clipPath><clipPath id="5226b21ad8"><rect x="0" width="194" y="0" height="126"/></clipPath><clipPath id="249f039dd6"><path d="M 136 0 L 328.839844 0 L 328.839844 125 L 136 125 Z M 136 0 " clip-rule="nonzero"/></clipPath><clipPath id="ffeb651080"><path d="M 152.742188 0 L 328.710938 95.511719 L 312.730469 124.960938 L 136.761719 29.445312 Z M 152.742188 0 " clip-rule="nonzero"/></clipPath><clipPath id="806fde25b2"><path d="M 0.601562 0 L 192.839844 0 L 192.839844 125 L 0.601562 125 Z M 0.601562 0 " clip-rule="nonzero"/></clipPath><clipPath id="0115f33b12"><path d="M 16.742188 0 L 192.710938 95.511719 L 176.730469 124.960938 L 0.761719 29.445312 Z M 16.742188 0 " clip-rule="nonzero"/></clipPath><clipPath id="8b0b75a37c"><rect x="0" width="193" y="0" height="125"/></clipPath><clipPath id="cdf8a372d8"><path d="M 11 74 L 199 74 L 199 197 L 11 197 Z M 11 74 " clip-rule="nonzero"/></clipPath><clipPath id="03ec454a82"><path d="M 27.402344 74.558594 L 198.570312 167.464844 L 182.585938 196.910156 L 11.417969 104.003906 Z M 27.402344 74.558594 " clip-rule="nonzero"/></clipPath><clipPath id="327f979690"><path d="M 0.320312 0.398438 L 187.761719 0.398438 L 187.761719 123 L 0.320312 123 Z M 0.320312 0.398438 " clip-rule="nonzero"/></clipPath><clipPath id="6466b1ebdb"><path d="M 16.402344 0.558594 L 187.570312 93.464844 L 171.585938 122.910156 L 0.417969 30.003906 Z M 16.402344 0.558594 " clip-rule="nonzero"/></clipPath><clipPath id="a5a886aacd"><rect x="0" width="188" y="0" height="123"/></clipPath><clipPath id="e7b4c044dd"><path d="M 0.0390625 230 L 229 230 L 229 375 L 0.0390625 375 Z M 0.0390625 230 " clip-rule="nonzero"/></clipPath><clipPath id="c4674381ff"><path d="M 16.269531 230.335938 L 228.542969 345.554688 L 212.558594 375 L 0.289062 259.78125 Z M 16.269531 230.335938 " clip-rule="nonzero"/></clipPath><clipPath id="9891435df2"><path d="M 0.28125 0.160156 L 228.761719 0.160156 L 228.761719 145 L 0.28125 145 Z M 0.28125 0.160156 " clip-rule="nonzero"/></clipPath><clipPath id="d4f555ecd0"><path d="M 16.269531 0.335938 L 228.542969 115.554688 L 212.558594 145 L 0.289062 29.78125 Z M 16.269531 0.335938 " clip-rule="nonzero"/></clipPath><clipPath id="18bd71255e"><rect x="0" width="229" y="0" height="145"/></clipPath><clipPath id="f4bf36a4c9"><path d="M 195 307 L 279 307 L 279 375 L 195 375 Z M 195 307 " clip-rule="nonzero"/></clipPath><clipPath id="db0d61918f"><path d="M 195.617188 345.671875 L 261.574219 307.296875 L 278.421875 336.257812 L 212.46875 374.632812 Z M 195.617188 345.671875 " clip-rule="nonzero"/></clipPath><clipPath id="562d5b0e12"><path d="M 0.398438 0.199219 L 83.441406 0.199219 L 83.441406 67.640625 L 0.398438 67.640625 Z M 0.398438 0.199219 " clip-rule="nonzero"/></clipPath><clipPath id="a93d461902"><path d="M 0.617188 38.671875 L 66.574219 0.296875 L 83.421875 29.257812 L 17.46875 67.632812 Z M 0.617188 38.671875 " clip-rule="nonzero"/></clipPath><clipPath id="cd325aae69"><rect x="0" width="84" y="0" height="68"/></clipPath><clipPath id="178596fd02"><path d="M 244.917969 125.421875 L 278.421875 125.421875 L 278.421875 335.105469 L 244.917969 335.105469 Z M 244.917969 125.421875 " clip-rule="nonzero"/></clipPath><clipPath id="22b146cf0d"><path d="M 0.917969 0.421875 L 34.421875 0.421875 L 34.421875 210.105469 L 0.917969 210.105469 Z M 0.917969 0.421875 " clip-rule="nonzero"/></clipPath><clipPath id="a415ca6a0c"><rect x="0" width="35" y="0" height="211"/></clipPath><clipPath id="9f14754344"><path d="M 295.207031 96.941406 L 328.710938 96.941406 L 328.710938 307.296875 L 295.207031 307.296875 Z M 295.207031 96.941406 " clip-rule="nonzero"/></clipPath><clipPath id="284ff5cfe9"><path d="M 0.207031 0.941406 L 33.710938 0.941406 L 33.710938 211.296875 L 0.207031 211.296875 Z M 0.207031 0.941406 " clip-rule="nonzero"/></clipPath><clipPath id="79d3b7c9e1"><rect x="0" width="34" y="0" height="212"/></clipPath><clipPath id="c6404b0f30"><path d="M 165.066406 168.339844 L 198.570312 168.339844 L 198.570312 259.25 L 165.066406 259.25 Z M 165.066406 168.339844 " clip-rule="nonzero"/></clipPath><clipPath id="ac6ea0de61"><path d="M 0.0664062 0.339844 L 33.570312 0.339844 L 33.570312 91.25 L 0.0664062 91.25 Z M 0.0664062 0.339844 " clip-rule="nonzero"/></clipPath><clipPath id="4a4b9cd850"><rect x="0" width="34" y="0" height="92"/></clipPath><clipPath id="3c0fd7d671"><path d="M 0.289062 90.417969 L 33.792969 90.417969 L 33.792969 259.25 L 0.289062 259.25 Z M 0.289062 90.417969 " clip-rule="nonzero"/></clipPath><clipPath id="d2f04405ae"><path d="M 0.289062 0.417969 L 33.792969 0.417969 L 33.792969 169.25 L 0.289062 169.25 Z M 0.289062 0.417969 " clip-rule="nonzero"/></clipPath><clipPath id="b36873a33d"><rect x="0" width="34" y="0" height="170"/></clipPath><clipPath id="1b93435d65"><path d="M 165.066406 240.835938 L 198.570312 240.835938 L 198.570312 279.183594 L 165.066406 279.183594 Z M 165.066406 240.835938 " clip-rule="nonzero"/></clipPath><clipPath id="44e614b3d8"><path d="M 198.570312 259.980469 L 165.066406 279.125 L 165.066406 240.835938 Z M 198.570312 259.980469 " clip-rule="nonzero"/></clipPath><clipPath id="fa469572b6"><path d="M 0.0664062 0.835938 L 33.570312 0.835938 L 33.570312 39.183594 L 0.0664062 39.183594 Z M 0.0664062 0.835938 " clip-rule="nonzero"/></clipPath><clipPath id="3d3eac412d"><path d="M 33.570312 19.980469 L 0.0664062 39.125 L 0.0664062 0.835938 Z M 33.570312 19.980469 " clip-rule="nonzero"/></clipPath><clipPath id="eaad64fe3d"><rect x="0" width="34" y="0" height="40"/></clipPath><clipPath id="06bb277fda"><path d="M 295.207031 288.152344 L 328.710938 288.152344 L 328.710938 326.5 L 295.207031 326.5 Z M 295.207031 288.152344 " clip-rule="nonzero"/></clipPath><clipPath id="8b1f8b3dc6"><path d="M 328.710938 307.296875 L 295.207031 326.445312 L 295.207031 288.152344 Z M 328.710938 307.296875 " clip-rule="nonzero"/></clipPath><clipPath id="84e8c228dc"><path d="M 0.207031 0.152344 L 33.710938 0.152344 L 33.710938 38.5 L 0.207031 38.5 Z M 0.207031 0.152344 " clip-rule="nonzero"/></clipPath><clipPath id="c0bde7aae4"><path d="M 33.710938 19.296875 L 0.207031 38.445312 L 0.207031 0.152344 Z M 33.710938 19.296875 " clip-rule="nonzero"/></clipPath><clipPath id="c1f2cb8beb"><rect x="0" width="34" y="0" height="39"/></clipPath><clipPath id="8c0268f176"><path d="M 0.0390625 74 L 28 74 L 28 107 L 0.0390625 107 Z M 0.0390625 74 " clip-rule="nonzero"/></clipPath><clipPath id="501c8ca5bb"><path d="M 41.257812 98.265625 L 14.125 114.148438 L 0.246094 90.4375 L 27.382812 74.554688 Z M 41.257812 98.265625 " clip-rule="nonzero"/></clipPath><clipPath id="7ee47c688b"><path d="M 27.710938 106.195312 L 0.285156 90.414062 L 27.382812 74.554688 Z M 27.710938 106.195312 " clip-rule="nonzero"/></clipPath><clipPath id="e81c67ec30"><path d="M 0.28125 0.398438 L 27.878906 0.398438 L 27.878906 32.320312 L 0.28125 32.320312 Z M 0.28125 0.398438 " clip-rule="nonzero"/></clipPath><clipPath id="599851f10b"><path d="M 41.257812 24.265625 L 14.125 40.148438 L 0.246094 16.4375 L 27.382812 0.554688 Z M 41.257812 24.265625 " clip-rule="nonzero"/></clipPath><clipPath id="c753fd7225"><path d="M 27.710938 32.195312 L 0.285156 16.414062 L 27.382812 0.554688 Z M 27.710938 32.195312 " clip-rule="nonzero"/></clipPath><clipPath id="3cdd3b2b55"><rect x="0" width="28" y="0" height="33"/></clipPath><clipPath id="02ab8dd4bf"><path d="M 68 30 L 103 30 L 103 69 L 68 69 Z M 68 30 " clip-rule="nonzero"/></clipPath><clipPath id="aa5f7779b8"><path d="M 118.683594 59.292969 L 85.59375 78.675781 L 68.65625 49.765625 L 101.746094 30.382812 Z M 118.683594 59.292969 " clip-rule="nonzero"/></clipPath><clipPath id="2525b728ba"><path d="M 102.164062 68.96875 L 68.707031 49.738281 L 101.746094 30.382812 Z M 102.164062 68.96875 " clip-rule="nonzero"/></clipPath><clipPath id="dbc6fcc456"><path d="M 0.679688 0.238281 L 34.28125 0.238281 L 34.28125 39 L 0.679688 39 Z M 0.679688 0.238281 " clip-rule="nonzero"/></clipPath><clipPath id="f0cb452973"><path d="M 50.683594 29.292969 L 17.59375 48.675781 L 0.65625 19.765625 L 33.746094 0.382812 Z M 50.683594 29.292969 " clip-rule="nonzero"/></clipPath><clipPath id="122b99fa43"><path d="M 34.164062 38.96875 L 0.707031 19.738281 L 33.746094 0.382812 Z M 34.164062 38.96875 " clip-rule="nonzero"/></clipPath><clipPath id="fe0aa2ff51"><rect x="0" width="35" y="0" height="39"/></clipPath><clipPath id="27f92035eb"><path d="M 119 0 L 154 0 L 154 39 L 119 39 Z M 119 0 " clip-rule="nonzero"/></clipPath><clipPath id="c81a9696ed"><path d="M 170.101562 29.089844 L 136.808594 48.59375 L 119.765625 19.503906 L 153.058594 0 Z M 170.101562 29.089844 " clip-rule="nonzero"/></clipPath><clipPath id="b1861c2f5e"><path d="M 153.480469 38.828125 L 119.816406 19.476562 L 153.058594 0 Z M 153.480469 38.828125 " clip-rule="nonzero"/></clipPath><clipPath id="ff75f8d06d"><path d="M 0.800781 0 L 34.640625 0 L 34.640625 38.878906 L 0.800781 38.878906 Z M 0.800781 0 " clip-rule="nonzero"/></clipPath><clipPath id="7e2b017e55"><path d="M 51.101562 29.089844 L 17.808594 48.59375 L 0.765625 19.503906 L 34.058594 0 Z M 51.101562 29.089844 " clip-rule="nonzero"/></clipPath><clipPath id="32e3368271"><path d="M 34.480469 38.828125 L 0.816406 19.476562 L 34.058594 0 Z M 34.480469 38.828125 " clip-rule="nonzero"/></clipPath><clipPath id="f7b0232556"><rect x="0" width="35" y="0" height="39"/></clipPath><clipPath id="d0ac8c1465"><rect x="0" width="329" y="0" height="375"/></clipPath></defs><g transform="matrix(1, 0, 0, 1, 23, 0)"><g clip-path="url(#d0ac8c1465)"><g clip-path="url(#5d5d6e4551)"><g clip-path="url(#8437f698ea)"><g transform="matrix(1, 0, 0, 1, 85, 30)"><g clip-path="url(#5226b21ad8)"><g clip-path="url(#e5ed59d9fa)"><g clip-path="url(#ef8b7c365d)"><path fill="#2acd53" d="M 16.660156 0.382812 L 192.992188 96.09375 L 177.011719 125.542969 L 0.675781 29.828125 Z M 16.660156 0.382812 " fill-opacity="1" fill-rule="nonzero"/></g></g></g></g></g></g><g clip-path="url(#249f039dd6)"><g clip-path="url(#ffeb651080)"><g transform="matrix(1, 0, 0, 1, 136, 0)"><g clip-path="url(#8b0b75a37c)"><g clip-path="url(#806fde25b2)"><g clip-path="url(#0115f33b12)"><path fill="#2acd53" d="M 16.742188 0 L 192.734375 95.523438 L 176.75 124.972656 L 0.761719 29.445312 Z M 16.742188 0 " fill-opacity="1" fill-rule="nonzero"/></g></g></g></g></g></g><g clip-path="url(#cdf8a372d8)"><g clip-path="url(#03ec454a82)"><g transform="matrix(1, 0, 0, 1, 11, 74)"><g clip-path="url(#a5a886aacd)"><g clip-path="url(#327f979690)"><g clip-path="url(#6466b1ebdb)"><path fill="#2acd53" d="M 16.402344 0.558594 L 187.558594 93.460938 L 171.578125 122.90625 L 0.417969 30.003906 Z M 16.402344 0.558594 " fill-opacity="1" fill-rule="nonzero"/></g></g></g></g></g></g><g clip-path="url(#e7b4c044dd)"><g clip-path="url(#c4674381ff)"><g transform="matrix(1, 0, 0, 1, 0, 230)"><g clip-path="url(#18bd71255e)"><g clip-path="url(#9891435df2)"><g clip-path="url(#d4f555ecd0)"><path fill="#2acd53" d="M 16.269531 0.335938 L 228.496094 115.527344 L 212.511719 144.972656 L 0.289062 29.78125 Z M 16.269531 0.335938 " fill-opacity="1" fill-rule="nonzero"/></g></g></g></g></g></g><g clip-path="url(#f4bf36a4c9)"><g clip-path="url(#db0d61918f)"><g transform="matrix(1, 0, 0, 1, 195, 307)"><g clip-path="url(#cd325aae69)"><g clip-path="url(#562d5b0e12)"><g clip-path="url(#a93d461902)"><path fill="#2acd53" d="M 0.617188 38.671875 L 66.570312 0.300781 L 83.417969 29.257812 L 17.46875 67.632812 Z M 0.617188 38.671875 " fill-opacity="1" fill-rule="nonzero"/></g></g></g></g></g></g><g clip-path="url(#178596fd02)"><g transform="matrix(1, 0, 0, 1, 244, 125)"><g clip-path="url(#a415ca6a0c)"><g clip-path="url(#22b146cf0d)"><path fill="#2acd53" d="M 0.917969 210.105469 L 0.917969 0.4375 L 34.421875 0.4375 L 34.421875 210.105469 Z M 0.917969 210.105469 " fill-opacity="1" fill-rule="nonzero"/></g></g></g></g><g clip-path="url(#9f14754344)"><g transform="matrix(1, 0, 0, 1, 295, 96)"><g clip-path="url(#79d3b7c9e1)"><g clip-path="url(#284ff5cfe9)"><path fill="#2acd53" d="M 0.207031 211.296875 L 0.207031 0.976562 L 33.710938 0.976562 L 33.710938 211.296875 Z M 0.207031 211.296875 " fill-opacity="1" fill-rule="nonzero"/></g></g></g></g><g clip-path="url(#c6404b0f30)"><g transform="matrix(1, 0, 0, 1, 165, 168)"><g clip-path="url(#4a4b9cd850)"><g clip-path="url(#ac6ea0de61)"><path fill="#2acd53" d="M 0.0664062 91.25 L 0.0664062 0.289062 L 33.570312 0.289062 L 33.570312 91.25 Z M 0.0664062 91.25 " fill-opacity="1" fill-rule="nonzero"/></g></g></g></g><g clip-path="url(#3c0fd7d671)"><g transform="matrix(1, 0, 0, 1, 0, 90)"><g clip-path="url(#b36873a33d)"><g clip-path="url(#d2f04405ae)"><path fill="#2acd53" d="M 0.289062 169.25 L 0.289062 0.417969 L 33.792969 0.417969 L 33.792969 169.25 Z M 0.289062 169.25 " fill-opacity="1" fill-rule="nonzero"/></g></g></g></g><g clip-path="url(#1b93435d65)"><g clip-path="url(#44e614b3d8)"><g transform="matrix(1, 0, 0, 1, 165, 240)"><g clip-path="url(#eaad64fe3d)"><g clip-path="url(#fa469572b6)"><g clip-path="url(#3d3eac412d)"><path fill="#2acd53" d="M 33.570312 0.835938 L 33.570312 39.183594 L 0.0664062 39.183594 L 0.0664062 0.835938 Z M 33.570312 0.835938 " fill-opacity="1" fill-rule="nonzero"/></g></g></g></g></g></g><g clip-path="url(#06bb277fda)"><g clip-path="url(#8b1f8b3dc6)"><g transform="matrix(1, 0, 0, 1, 295, 288)"><g clip-path="url(#c1f2cb8beb)"><g clip-path="url(#84e8c228dc)"><g clip-path="url(#c0bde7aae4)"><path fill="#2acd53" d="M 33.710938 0.152344 L 33.710938 38.5 L 0.207031 38.5 L 0.207031 0.152344 Z M 33.710938 0.152344 " fill-opacity="1" fill-rule="nonzero"/></g></g></g></g></g></g><g clip-path="url(#8c0268f176)"><g clip-path="url(#501c8ca5bb)"><g clip-path="url(#7ee47c688b)"><g transform="matrix(1, 0, 0, 1, 0, 74)"><g clip-path="url(#3cdd3b2b55)"><g clip-path="url(#e81c67ec30)"><g clip-path="url(#599851f10b)"><g clip-path="url(#c753fd7225)"><path fill="#2acd53" d="M 41.257812 24.265625 L 14.125 40.148438 L 0.246094 16.4375 L 27.382812 0.554688 Z M 41.257812 24.265625 " fill-opacity="1" fill-rule="nonzero"/></g></g></g></g></g></g></g></g><g clip-path="url(#02ab8dd4bf)"><g clip-path="url(#aa5f7779b8)"><g clip-path="url(#2525b728ba)"><g transform="matrix(1, 0, 0, 1, 68, 30)"><g clip-path="url(#fe0aa2ff51)"><g clip-path="url(#dbc6fcc456)"><g clip-path="url(#f0cb452973)"><g clip-path="url(#122b99fa43)"><path fill="#2acd53" d="M 50.683594 29.292969 L 17.59375 48.675781 L 0.65625 19.765625 L 33.746094 0.382812 Z M 50.683594 29.292969 " fill-opacity="1" fill-rule="nonzero"/></g></g></g></g></g></g></g></g><g clip-path="url(#27f92035eb)"><g clip-path="url(#c81a9696ed)"><g clip-path="url(#b1861c2f5e)"><g transform="matrix(1, 0, 0, 1, 119, 0)"><g clip-path="url(#f7b0232556)"><g clip-path="url(#ff75f8d06d)"><g clip-path="url(#7e2b017e55)"><g clip-path="url(#32e3368271)"><path fill="#2acd53" d="M 51.101562 29.089844 L 17.808594 48.59375 L 0.765625 19.503906 L 34.058594 0 Z M 51.101562 29.089844 " fill-opacity="1" fill-rule="nonzero"/></g></g></g></g></g></g></g></g></g></g></svg>