<svg xmlns="http://www.w3.org/2000/svg" xmlns:xlink="http://www.w3.org/1999/xlink" width="6047" zoomAndPan="magnify" viewBox="0 0 4535.25 2268.00001" height="3024" preserveAspectRatio="xMidYMid meet" version="1.0"><defs><g/><clipPath id="dde45eae83"><path d="M 0.625 132 L 4533.875 132 L 4533.875 2120 L 0.625 2120 Z M 0.625 132 " clip-rule="nonzero"/></clipPath><clipPath id="00abb9218d"><path d="M 1827 114 L 4533.875 114 L 4533.875 1779 L 1827 1779 Z M 1827 114 " clip-rule="nonzero"/></clipPath><clipPath id="19dfa988ff"><path d="M 1923 383 L 2706.875 383 L 2706.875 1319 L 1923 1319 Z M 1923 383 " clip-rule="nonzero"/></clipPath><clipPath id="46b82f7f29"><rect x="0" width="2707" y="0" height="1665"/></clipPath><clipPath id="a2cdee5db3"><path d="M 453 161 L 1473 161 L 1473 826 L 453 826 Z M 453 161 " clip-rule="nonzero"/></clipPath><clipPath id="19b9462a2c"><path d="M 537.695312 161.832031 L 1472.128906 669.027344 L 1387.449219 825.039062 L 453.015625 317.84375 Z M 537.695312 161.832031 " clip-rule="nonzero"/></clipPath><clipPath id="2c52c1ddab"><path d="M 0 0.628906 L 1019 0.628906 L 1019 664 L 0 664 Z M 0 0.628906 " clip-rule="nonzero"/></clipPath><clipPath id="b43318b0c7"><path d="M 84.695312 0.832031 L 1019.128906 508.027344 L 934.449219 664.039062 L 0.015625 156.84375 Z M 84.695312 0.832031 " clip-rule="nonzero"/></clipPath><clipPath id="f184827cf3"><rect x="0" width="1020" y="0" height="665"/></clipPath><clipPath id="d5c667e4fc"><path d="M 723 0.660156 L 1741 0.660156 L 1741 663 L 723 663 Z M 723 0.660156 " clip-rule="nonzero"/></clipPath><clipPath id="473237439f"><path d="M 808.351562 0.863281 L 1740.652344 506.902344 L 1655.972656 662.914062 L 723.671875 156.875 Z M 808.351562 0.863281 " clip-rule="nonzero"/></clipPath><clipPath id="713d94bb3a"><path d="M 0.664062 0.660156 L 1017.816406 0.660156 L 1017.816406 663 L 0.664062 663 Z M 0.664062 0.660156 " clip-rule="nonzero"/></clipPath><clipPath id="46bd18f365"><path d="M 85.351562 0.863281 L 1017.652344 506.902344 L 932.972656 662.914062 L 0.671875 156.875 Z M 85.351562 0.863281 " clip-rule="nonzero"/></clipPath><clipPath id="670bc2bdcc"><rect x="0" width="1018" y="0" height="663"/></clipPath><clipPath id="714fd4061e"><path d="M 59 395 L 1052 395 L 1052 1045 L 59 1045 Z M 59 395 " clip-rule="nonzero"/></clipPath><clipPath id="8f87d175c6"><path d="M 144.273438 395.875 L 1051.144531 888.109375 L 966.464844 1044.121094 L 59.59375 551.886719 Z M 144.273438 395.875 " clip-rule="nonzero"/></clipPath><clipPath id="af2e7f10de"><path d="M 0.398438 0.765625 L 992.359375 0.765625 L 992.359375 649.203125 L 0.398438 649.203125 Z M 0.398438 0.765625 " clip-rule="nonzero"/></clipPath><clipPath id="1f760ae7c4"><path d="M 85.273438 0.875 L 992.144531 493.109375 L 907.464844 649.121094 L 0.59375 156.886719 Z M 85.273438 0.875 " clip-rule="nonzero"/></clipPath><clipPath id="00257f027a"><rect x="0" width="993" y="0" height="650"/></clipPath><clipPath id="67ae3e77fb"><path d="M 0.625 1221 L 1210 1221 L 1210 1987.945312 L 0.625 1987.945312 Z M 0.625 1221 " clip-rule="nonzero"/></clipPath><clipPath id="fa51a26477"><path d="M 85.304688 1221.207031 L 1209.941406 1831.644531 L 1125.261719 1987.65625 L 0.625 1377.21875 Z M 85.304688 1221.207031 " clip-rule="nonzero"/></clipPath><clipPath id="1bfc02246c"><path d="M 0.625 0.00390625 L 1210 0.00390625 L 1210 766.707031 L 0.625 766.707031 Z M 0.625 0.00390625 " clip-rule="nonzero"/></clipPath><clipPath id="ee6f093ca8"><path d="M 85.304688 0.207031 L 1209.941406 610.644531 L 1125.261719 766.65625 L 0.625 156.21875 Z M 85.304688 0.207031 " clip-rule="nonzero"/></clipPath><clipPath id="e026b9a14f"><rect x="0" width="1210" y="0" height="767"/></clipPath><clipPath id="3c75559734"><path d="M 1035 1628 L 1475 1628 L 1475 1986 L 1035 1986 Z M 1035 1628 " clip-rule="nonzero"/></clipPath><clipPath id="288cd01a4c"><path d="M 1035.511719 1832.269531 L 1384.945312 1628.964844 L 1474.214844 1782.394531 L 1124.78125 1985.699219 Z M 1035.511719 1832.269531 " clip-rule="nonzero"/></clipPath><clipPath id="3969eb8c54"><path d="M 0.289062 0.824219 L 439.292969 0.824219 L 439.292969 357.785156 L 0.289062 357.785156 Z M 0.289062 0.824219 " clip-rule="nonzero"/></clipPath><clipPath id="76dcd25ce3"><path d="M 0.511719 204.269531 L 349.945312 0.964844 L 439.214844 154.394531 L 89.78125 357.699219 Z M 0.511719 204.269531 " clip-rule="nonzero"/></clipPath><clipPath id="343e240a61"><rect x="0" width="440" y="0" height="358"/></clipPath><clipPath id="f19e6a4c87"><path d="M 1296.695312 665.359375 L 1474.207031 665.359375 L 1474.207031 1776.285156 L 1296.695312 1776.285156 Z M 1296.695312 665.359375 " clip-rule="nonzero"/></clipPath><clipPath id="8510591e5b"><path d="M 0.695312 0.359375 L 178.207031 0.359375 L 178.207031 1111.285156 L 0.695312 1111.285156 Z M 0.695312 0.359375 " clip-rule="nonzero"/></clipPath><clipPath id="c7a05c21df"><rect x="0" width="179" y="0" height="1112"/></clipPath><clipPath id="0203e81bec"><path d="M 1563.136719 514.464844 L 1740.648438 514.464844 L 1740.648438 1628.960938 L 1563.136719 1628.960938 Z M 1563.136719 514.464844 " clip-rule="nonzero"/></clipPath><clipPath id="44b9f16475"><path d="M 0.136719 0.464844 L 177.648438 0.464844 L 177.648438 1114.960938 L 0.136719 1114.960938 Z M 0.136719 0.464844 " clip-rule="nonzero"/></clipPath><clipPath id="45bb9d9716"><rect x="0" width="178" y="0" height="1115"/></clipPath><clipPath id="a5ce2a5f53"><path d="M 873.628906 892.742188 L 1051.140625 892.742188 L 1051.140625 1374.390625 L 873.628906 1374.390625 Z M 873.628906 892.742188 " clip-rule="nonzero"/></clipPath><clipPath id="cd325de4b0"><path d="M 0.628906 0.742188 L 178.140625 0.742188 L 178.140625 482.390625 L 0.628906 482.390625 Z M 0.628906 0.742188 " clip-rule="nonzero"/></clipPath><clipPath id="9319e68da9"><rect x="0" width="179" y="0" height="483"/></clipPath><clipPath id="6c423e35c6"><path d="M 0.625 479.902344 L 178.132812 479.902344 L 178.132812 1374.390625 L 0.625 1374.390625 Z M 0.625 479.902344 " clip-rule="nonzero"/></clipPath><clipPath id="c918cc0cd6"><path d="M 0.625 0.902344 L 178.132812 0.902344 L 178.132812 895.390625 L 0.625 895.390625 Z M 0.625 0.902344 " clip-rule="nonzero"/></clipPath><clipPath id="41797594b4"><rect x="0" width="179" y="0" height="896"/></clipPath><clipPath id="ea3d3cd9ca"><path d="M 873.632812 1276.832031 L 1051.144531 1276.832031 L 1051.144531 1480 L 873.632812 1480 Z M 873.632812 1276.832031 " clip-rule="nonzero"/></clipPath><clipPath id="38d7ea3447"><path d="M 1051.144531 1378.269531 L 873.632812 1479.703125 L 873.632812 1276.832031 Z M 1051.144531 1378.269531 " clip-rule="nonzero"/></clipPath><clipPath id="af04482e5a"><path d="M 0.632812 0.832031 L 178.144531 0.832031 L 178.144531 203.847656 L 0.632812 203.847656 Z M 0.632812 0.832031 " clip-rule="nonzero"/></clipPath><clipPath id="c415071392"><path d="M 178.144531 102.269531 L 0.632812 203.703125 L 0.632812 0.832031 Z M 178.144531 102.269531 " clip-rule="nonzero"/></clipPath><clipPath id="636ede7d6d"><rect x="0" width="179" y="0" height="204"/></clipPath><clipPath id="0235a647ff"><path d="M 1563.140625 1527.527344 L 1740.652344 1527.527344 L 1740.652344 1730.699219 L 1563.140625 1730.699219 Z M 1563.140625 1527.527344 " clip-rule="nonzero"/></clipPath><clipPath id="2963589587"><path d="M 1740.652344 1628.964844 L 1563.140625 1730.398438 L 1563.140625 1527.527344 Z M 1740.652344 1628.964844 " clip-rule="nonzero"/></clipPath><clipPath id="9d7733cfaf"><path d="M 0.140625 0.527344 L 177.652344 0.527344 L 177.652344 203.539062 L 0.140625 203.539062 Z M 0.140625 0.527344 " clip-rule="nonzero"/></clipPath><clipPath id="fc91edf631"><path d="M 177.652344 101.964844 L 0.140625 203.398438 L 0.140625 0.527344 Z M 177.652344 101.964844 " clip-rule="nonzero"/></clipPath><clipPath id="15d9731190"><rect x="0" width="178" y="0" height="204"/></clipPath><clipPath id="56877cd51f"><path d="M 0.625 395 L 146 395 L 146 564 L 0.625 564 Z M 0.625 395 " clip-rule="nonzero"/></clipPath><clipPath id="5b7c4eaed5"><path d="M 217.6875 521.476562 L 73.925781 605.625 L 0.402344 480.015625 L 144.164062 395.867188 Z M 217.6875 521.476562 " clip-rule="nonzero"/></clipPath><clipPath id="c431755e4a"><path d="M 145.914062 563.488281 L 0.613281 479.894531 L 144.164062 395.867188 Z M 145.914062 563.488281 " clip-rule="nonzero"/></clipPath><clipPath id="f8947336f9"><path d="M 0.625 0.765625 L 146 0.765625 L 146 168.691406 L 0.625 168.691406 Z M 0.625 0.765625 " clip-rule="nonzero"/></clipPath><clipPath id="60c37c4e80"><path d="M 217.6875 126.476562 L 73.925781 210.625 L 0.402344 85.015625 L 144.164062 0.867188 Z M 217.6875 126.476562 " clip-rule="nonzero"/></clipPath><clipPath id="61b34ab15e"><path d="M 145.914062 168.488281 L 0.613281 84.894531 L 144.164062 0.867188 Z M 145.914062 168.488281 " clip-rule="nonzero"/></clipPath><clipPath id="278ca20598"><rect x="0" width="146" y="0" height="169"/></clipPath><clipPath id="88c56af727"><path d="M 363 161 L 541 161 L 541 367 L 363 367 Z M 363 161 " clip-rule="nonzero"/></clipPath><clipPath id="030e5f3921"><path d="M 627.886719 314.992188 L 452.589844 417.695312 L 362.855469 264.53125 L 538.15625 161.828125 Z M 627.886719 314.992188 " clip-rule="nonzero"/></clipPath><clipPath id="5ecdd35666"><path d="M 540.367188 366.269531 L 363.113281 264.382812 L 538.15625 161.828125 Z M 540.367188 366.269531 " clip-rule="nonzero"/></clipPath><clipPath id="8b87f9ab5c"><path d="M 0.105469 0.628906 L 177.386719 0.628906 L 177.386719 205.5 L 0.105469 205.5 Z M 0.105469 0.628906 " clip-rule="nonzero"/></clipPath><clipPath id="1d2cb907fe"><path d="M 264.886719 153.992188 L 89.589844 256.695312 L -0.144531 103.53125 L 175.15625 0.828125 Z M 264.886719 153.992188 " clip-rule="nonzero"/></clipPath><clipPath id="62db2b807d"><path d="M 177.367188 205.269531 L 0.113281 103.382812 L 175.15625 0.828125 Z M 177.367188 205.269531 " clip-rule="nonzero"/></clipPath><clipPath id="bffa7ab879"><rect x="0" width="178" y="0" height="206"/></clipPath><clipPath id="561e2d1188"><path d="M 633 0.660156 L 813 0.660156 L 813 207 L 633 207 Z M 633 0.660156 " clip-rule="nonzero"/></clipPath><clipPath id="608b7e18f5"><path d="M 900.316406 154.976562 L 723.929688 258.316406 L 633.636719 104.199219 L 810.027344 0.859375 Z M 900.316406 154.976562 " clip-rule="nonzero"/></clipPath><clipPath id="d82fee06ee"><path d="M 812.253906 206.570312 L 633.894531 104.050781 L 810.027344 0.859375 Z M 812.253906 206.570312 " clip-rule="nonzero"/></clipPath><clipPath id="1e7cad37ee"><path d="M 0.707031 0.660156 L 179.425781 0.660156 L 179.425781 206.730469 L 0.707031 206.730469 Z M 0.707031 0.660156 " clip-rule="nonzero"/></clipPath><clipPath id="b04ace480a"><path d="M 267.316406 154.976562 L 90.929688 258.316406 L 0.636719 104.199219 L 177.027344 0.859375 Z M 267.316406 154.976562 " clip-rule="nonzero"/></clipPath><clipPath id="79e4f1462e"><path d="M 179.253906 206.570312 L 0.894531 104.050781 L 177.027344 0.859375 Z M 179.253906 206.570312 " clip-rule="nonzero"/></clipPath><clipPath id="5791258185"><rect x="0" width="180" y="0" height="207"/></clipPath><clipPath id="4f7ea35bec"><rect x="0" width="4534" y="0" height="1988"/></clipPath></defs><g clip-path="url(#dde45eae83)"><g transform="matrix(1, 0, 0, 1, 0.000000000000000111, 132)"><g clip-path="url(#4f7ea35bec)"><g clip-path="url(#00abb9218d)"><g transform="matrix(1, 0, 0, 1, 1827, 114)"><g clip-path="url(#46b82f7f29)"><g fill="#2acd53" fill-opacity="1"><g transform="translate(0.309611, 1318.178117)"><g><path d="M 413.8125 13.34375 C 362.195312 13.34375 314.140625 7.113281 269.640625 -5.34375 C 225.148438 -17.800781 186.21875 -36.265625 152.84375 -60.734375 C 119.46875 -85.203125 92.546875 -115.898438 72.078125 -152.828125 C 51.609375 -189.765625 38.707031 -232.265625 33.375 -280.328125 L 233.59375 -280.328125 C 240.71875 -242.941406 259.851562 -213.570312 291 -192.21875 C 322.144531 -170.863281 363.082031 -160.1875 413.8125 -160.1875 C 476.988281 -160.1875 521.703125 -170.640625 547.953125 -191.546875 C 574.210938 -212.460938 587.34375 -239.828125 587.34375 -273.640625 C 587.34375 -296.785156 579.773438 -315.253906 564.640625 -329.046875 C 549.515625 -342.835938 529.9375 -353.957031 505.90625 -362.40625 C 481.882812 -370.863281 454.300781 -377.984375 423.15625 -383.765625 C 392.007812 -389.554688 359.972656 -396.234375 327.046875 -403.796875 C 294.117188 -411.359375 262.078125 -420.921875 230.921875 -432.484375 C 199.773438 -444.054688 172.1875 -459.851562 148.15625 -479.875 C 124.132812 -499.90625 104.5625 -525.492188 89.4375 -556.640625 C 74.3125 -587.785156 66.75 -626.941406 66.75 -674.109375 C 66.75 -719.492188 75.644531 -759.09375 93.4375 -792.90625 C 111.238281 -826.71875 135.929688 -855.191406 167.515625 -878.328125 C 199.109375 -901.472656 236.039062 -918.828125 278.3125 -930.390625 C 320.582031 -941.960938 365.75 -947.75 413.8125 -947.75 C 470.757812 -947.75 520.59375 -940.851562 563.3125 -927.0625 C 606.03125 -913.269531 642.070312 -893.914062 671.4375 -869 C 700.800781 -844.082031 723.9375 -814.9375 740.84375 -781.5625 C 757.75 -748.1875 768.875 -712.367188 774.21875 -674.109375 L 573.984375 -674.109375 C 566.867188 -704.359375 550.40625 -728.601562 524.59375 -746.84375 C 498.789062 -765.09375 464.085938 -774.21875 420.484375 -774.21875 C 369.753906 -774.21875 332.597656 -764.207031 309.015625 -744.1875 C 285.429688 -724.164062 273.640625 -700.804688 273.640625 -674.109375 C 273.640625 -650.078125 281.203125 -630.71875 296.328125 -616.03125 C 311.460938 -601.351562 331.039062 -589.34375 355.0625 -580 C 379.09375 -570.65625 406.679688 -562.644531 437.828125 -555.96875 C 468.972656 -549.289062 501.007812 -541.945312 533.9375 -533.9375 C 566.863281 -525.9375 598.898438 -516.148438 630.046875 -504.578125 C 661.203125 -493.003906 688.789062 -477.425781 712.8125 -457.84375 C 736.84375 -438.269531 756.421875 -413.800781 771.546875 -384.4375 C 786.671875 -355.070312 794.234375 -318.140625 794.234375 -273.640625 C 794.234375 -233.597656 786 -196.222656 769.53125 -161.515625 C 753.070312 -126.804688 728.820312 -96.328125 696.78125 -70.078125 C 664.75 -43.828125 624.925781 -23.359375 577.3125 -8.671875 C 529.707031 6.003906 475.207031 13.34375 413.8125 13.34375 Z M 413.8125 13.34375 "/></g></g></g><g fill="#2acd53" fill-opacity="1"><g transform="translate(737.101731, 1318.178117)"><g><path d="M 93.4375 -934.40625 L 293.671875 -934.40625 L 293.671875 0 L 93.4375 0 Z M 93.4375 -934.40625 "/></g></g></g><g fill="#2acd53" fill-opacity="1"><g transform="translate(1026.739914, 1318.178117)"><g><path d="M 327.046875 -934.40625 L 573.984375 -934.40625 L 907.703125 0 L 700.796875 0 L 640.734375 -173.53125 L 260.296875 -173.53125 L 200.234375 0 L -6.671875 0 Z M 575.328125 -353.734375 L 453.859375 -707.46875 L 447.171875 -707.46875 L 325.703125 -353.734375 Z M 575.328125 -353.734375 "/></g></g></g><g clip-path="url(#19dfa988ff)"><g fill="#2acd53" fill-opacity="1"><g transform="translate(1830.271181, 1318.178117)"><g><path d="M 93.4375 -934.40625 L 293.671875 -934.40625 L 293.671875 -520.59375 L 627.390625 -934.40625 L 860.984375 -934.40625 L 487.21875 -473.875 L 881 0 L 647.40625 0 L 293.671875 -427.15625 L 293.671875 0 L 93.4375 0 Z M 93.4375 -934.40625 "/></g></g></g></g></g></g></g><g clip-path="url(#a2cdee5db3)"><g clip-path="url(#19b9462a2c)"><g transform="matrix(1, 0, 0, 1, 453, 161)"><g clip-path="url(#f184827cf3)"><g clip-path="url(#2c52c1ddab)"><g clip-path="url(#b43318b0c7)"><path fill="#2acd53" d="M 84.695312 0.832031 L 1018.941406 507.925781 L 934.261719 663.9375 L 0.015625 156.84375 Z M 84.695312 0.832031 " fill-opacity="1" fill-rule="nonzero"/></g></g></g></g></g></g><g clip-path="url(#d5c667e4fc)"><g clip-path="url(#473237439f)"><g transform="matrix(1, 0, 0, 1, 723, -0.00000000000017053)"><g clip-path="url(#670bc2bdcc)"><g clip-path="url(#713d94bb3a)"><g clip-path="url(#46bd18f365)"><path fill="#2acd53" d="M 85.351562 0.863281 L 1017.769531 506.964844 L 933.085938 662.976562 L 0.671875 156.875 Z M 85.351562 0.863281 " fill-opacity="1" fill-rule="nonzero"/></g></g></g></g></g></g><g clip-path="url(#714fd4061e)"><g clip-path="url(#8f87d175c6)"><g transform="matrix(1, 0, 0, 1, 59, 395)"><g clip-path="url(#00257f027a)"><g clip-path="url(#af2e7f10de)"><g clip-path="url(#1f760ae7c4)"><path fill="#2acd53" d="M 85.273438 0.875 L 992.09375 493.082031 L 907.414062 649.09375 L 0.59375 156.886719 Z M 85.273438 0.875 " fill-opacity="1" fill-rule="nonzero"/></g></g></g></g></g></g><g clip-path="url(#67ae3e77fb)"><g clip-path="url(#fa51a26477)"><g transform="matrix(1, 0, 0, 1, 0.000000000000000111, 1221)"><g clip-path="url(#e026b9a14f)"><g clip-path="url(#1bfc02246c)"><g clip-path="url(#ee6f093ca8)"><path fill="#2acd53" d="M 85.304688 0.207031 L 1209.691406 610.507812 L 1125.007812 766.519531 L 0.625 156.21875 Z M 85.304688 0.207031 " fill-opacity="1" fill-rule="nonzero"/></g></g></g></g></g></g><g clip-path="url(#3c75559734)"><g clip-path="url(#288cd01a4c)"><g transform="matrix(1, 0, 0, 1, 1035, 1628)"><g clip-path="url(#343e240a61)"><g clip-path="url(#3969eb8c54)"><g clip-path="url(#76dcd25ce3)"><path fill="#2acd53" d="M 0.511719 204.269531 L 349.929688 0.972656 L 439.199219 154.402344 L 89.78125 357.699219 Z M 0.511719 204.269531 " fill-opacity="1" fill-rule="nonzero"/></g></g></g></g></g></g><g clip-path="url(#f19e6a4c87)"><g transform="matrix(1, 0, 0, 1, 1296, 665)"><g clip-path="url(#c7a05c21df)"><g clip-path="url(#8510591e5b)"><path fill="#2acd53" d="M 0.695312 1111.285156 L 0.695312 0.449219 L 178.210938 0.449219 L 178.210938 1111.285156 Z M 0.695312 1111.285156 " fill-opacity="1" fill-rule="nonzero"/></g></g></g></g><g clip-path="url(#0203e81bec)"><g transform="matrix(1, 0, 0, 1, 1563, 514)"><g clip-path="url(#45bb9d9716)"><g clip-path="url(#44b9f16475)"><path fill="#2acd53" d="M 0.136719 1114.960938 L 0.136719 0.65625 L 177.648438 0.65625 L 177.648438 1114.960938 Z M 0.136719 1114.960938 " fill-opacity="1" fill-rule="nonzero"/></g></g></g></g><g clip-path="url(#a5ce2a5f53)"><g transform="matrix(1, 0, 0, 1, 873, 892)"><g clip-path="url(#9319e68da9)"><g clip-path="url(#cd325de4b0)"><path fill="#2acd53" d="M 0.628906 482.390625 L 0.628906 0.472656 L 178.140625 0.472656 L 178.140625 482.390625 Z M 0.628906 482.390625 " fill-opacity="1" fill-rule="nonzero"/></g></g></g></g><g clip-path="url(#6c423e35c6)"><g transform="matrix(1, 0, 0, 1, 0.000000000000000111, 479)"><g clip-path="url(#41797594b4)"><g clip-path="url(#c918cc0cd6)"><path fill="#2acd53" d="M 0.621094 895.390625 L 0.621094 0.894531 L 178.132812 0.894531 L 178.132812 895.390625 Z M 0.621094 895.390625 " fill-opacity="1" fill-rule="nonzero"/></g></g></g></g><g clip-path="url(#ea3d3cd9ca)"><g clip-path="url(#38d7ea3447)"><g transform="matrix(1, 0, 0, 1, 873, 1276)"><g clip-path="url(#636ede7d6d)"><g clip-path="url(#af04482e5a)"><g clip-path="url(#c415071392)"><path fill="#2acd53" d="M 178.144531 0.832031 L 178.144531 204 L 0.632812 204 L 0.632812 0.832031 Z M 178.144531 0.832031 " fill-opacity="1" fill-rule="nonzero"/></g></g></g></g></g></g><g clip-path="url(#0235a647ff)"><g clip-path="url(#2963589587)"><g transform="matrix(1, 0, 0, 1, 1563, 1527)"><g clip-path="url(#15d9731190)"><g clip-path="url(#9d7733cfaf)"><g clip-path="url(#fc91edf631)"><path fill="#2acd53" d="M 177.652344 0.527344 L 177.652344 203.695312 L 0.140625 203.695312 L 0.140625 0.527344 Z M 177.652344 0.527344 " fill-opacity="1" fill-rule="nonzero"/></g></g></g></g></g></g><g clip-path="url(#56877cd51f)"><g clip-path="url(#5b7c4eaed5)"><g clip-path="url(#c431755e4a)"><g transform="matrix(1, 0, 0, 1, 0.000000000000000111, 395)"><g clip-path="url(#278ca20598)"><g clip-path="url(#f8947336f9)"><g clip-path="url(#60c37c4e80)"><g clip-path="url(#61b34ab15e)"><path fill="#2acd53" d="M 217.6875 126.476562 L 73.925781 210.625 L 0.402344 85.015625 L 144.164062 0.867188 Z M 217.6875 126.476562 " fill-opacity="1" fill-rule="nonzero"/></g></g></g></g></g></g></g></g><g clip-path="url(#88c56af727)"><g clip-path="url(#030e5f3921)"><g clip-path="url(#5ecdd35666)"><g transform="matrix(1, 0, 0, 1, 363, 161)"><g clip-path="url(#bffa7ab879)"><g clip-path="url(#8b87f9ab5c)"><g clip-path="url(#1d2cb907fe)"><g clip-path="url(#62db2b807d)"><path fill="#2acd53" d="M 264.886719 153.992188 L 89.589844 256.695312 L -0.144531 103.53125 L 175.15625 0.828125 Z M 264.886719 153.992188 " fill-opacity="1" fill-rule="nonzero"/></g></g></g></g></g></g></g></g><g clip-path="url(#561e2d1188)"><g clip-path="url(#608b7e18f5)"><g clip-path="url(#d82fee06ee)"><g transform="matrix(1, 0, 0, 1, 633, -0.00000000000017053)"><g clip-path="url(#5791258185)"><g clip-path="url(#1e7cad37ee)"><g clip-path="url(#b04ace480a)"><g clip-path="url(#79e4f1462e)"><path fill="#2acd53" d="M 267.316406 154.976562 L 90.929688 258.316406 L 0.636719 104.199219 L 177.027344 0.859375 Z M 267.316406 154.976562 " fill-opacity="1" fill-rule="nonzero"/></g></g></g></g></g></g></g></g></g></g></g></svg>