<svg xmlns="http://www.w3.org/2000/svg" xmlns:xlink="http://www.w3.org/1999/xlink" width="6047" zoomAndPan="magnify" viewBox="0 0 4535.25 2268.00001" height="3024" preserveAspectRatio="xMidYMid meet" version="1.0"><defs><g/><clipPath id="652450d0e2"><path d="M 0.625 132 L 4533.875 132 L 4533.875 2120 L 0.625 2120 Z M 0.625 132 " clip-rule="nonzero"/></clipPath><clipPath id="9649ddcb26"><path d="M 0.625 0.660156 L 4533.875 0.660156 L 4533.875 1987.945312 L 0.625 1987.945312 Z M 0.625 0.660156 " clip-rule="nonzero"/></clipPath><clipPath id="32c02d770b"><path d="M 1827 114 L 4533.875 114 L 4533.875 1779 L 1827 1779 Z M 1827 114 " clip-rule="nonzero"/></clipPath><clipPath id="6a7e814431"><path d="M 1923 383 L 2706.875 383 L 2706.875 1319 L 1923 1319 Z M 1923 383 " clip-rule="nonzero"/></clipPath><clipPath id="24c1bbbe5f"><rect x="0" width="2707" y="0" height="1665"/></clipPath><clipPath id="8acd4f165b"><path d="M 453 161 L 1473 161 L 1473 826 L 453 826 Z M 453 161 " clip-rule="nonzero"/></clipPath><clipPath id="bdb1c3623b"><path d="M 537.695312 161.832031 L 1472.128906 669.027344 L 1387.449219 825.039062 L 453.015625 317.84375 Z M 537.695312 161.832031 " clip-rule="nonzero"/></clipPath><clipPath id="c7fc7dfaa7"><path d="M 0 0.628906 L 1019 0.628906 L 1019 664 L 0 664 Z M 0 0.628906 " clip-rule="nonzero"/></clipPath><clipPath id="f215681a2e"><path d="M 84.695312 0.832031 L 1019.128906 508.027344 L 934.449219 664.039062 L 0.015625 156.84375 Z M 84.695312 0.832031 " clip-rule="nonzero"/></clipPath><clipPath id="aff67ee443"><rect x="0" width="1020" y="0" height="665"/></clipPath><clipPath id="b162ba3e0e"><path d="M 723 0.660156 L 1741 0.660156 L 1741 663 L 723 663 Z M 723 0.660156 " clip-rule="nonzero"/></clipPath><clipPath id="97f58ebda6"><path d="M 808.351562 0.863281 L 1740.652344 506.902344 L 1655.972656 662.914062 L 723.667969 156.875 Z M 808.351562 0.863281 " clip-rule="nonzero"/></clipPath><clipPath id="d12aa8b2c3"><path d="M 0.664062 0.660156 L 1017.816406 0.660156 L 1017.816406 663 L 0.664062 663 Z M 0.664062 0.660156 " clip-rule="nonzero"/></clipPath><clipPath id="ad0b6d4520"><path d="M 85.351562 0.863281 L 1017.652344 506.902344 L 932.972656 662.914062 L 0.667969 156.875 Z M 85.351562 0.863281 " clip-rule="nonzero"/></clipPath><clipPath id="aeaa2d844a"><rect x="0" width="1018" y="0" height="663"/></clipPath><clipPath id="fb33e2f2fe"><path d="M 59 395 L 1052 395 L 1052 1045 L 59 1045 Z M 59 395 " clip-rule="nonzero"/></clipPath><clipPath id="d55a4c36de"><path d="M 144.273438 395.875 L 1051.144531 888.109375 L 966.464844 1044.121094 L 59.589844 551.886719 Z M 144.273438 395.875 " clip-rule="nonzero"/></clipPath><clipPath id="3546f7459c"><path d="M 0.398438 0.765625 L 992.359375 0.765625 L 992.359375 649.203125 L 0.398438 649.203125 Z M 0.398438 0.765625 " clip-rule="nonzero"/></clipPath><clipPath id="a2b57602c6"><path d="M 85.273438 0.875 L 992.144531 493.109375 L 907.464844 649.121094 L 0.589844 156.886719 Z M 85.273438 0.875 " clip-rule="nonzero"/></clipPath><clipPath id="14fbbf5ba9"><rect x="0" width="993" y="0" height="650"/></clipPath><clipPath id="995a071b1c"><path d="M 0.625 1221 L 1210 1221 L 1210 1987.945312 L 0.625 1987.945312 Z M 0.625 1221 " clip-rule="nonzero"/></clipPath><clipPath id="bfb6b32bd9"><path d="M 85.304688 1221.207031 L 1209.941406 1831.644531 L 1125.261719 1987.65625 L 0.625 1377.222656 Z M 85.304688 1221.207031 " clip-rule="nonzero"/></clipPath><clipPath id="e22b27a2dc"><path d="M 0.625 0.00390625 L 1210 0.00390625 L 1210 766.707031 L 0.625 766.707031 Z M 0.625 0.00390625 " clip-rule="nonzero"/></clipPath><clipPath id="185c130531"><path d="M 85.304688 0.207031 L 1209.941406 610.644531 L 1125.261719 766.65625 L 0.625 156.222656 Z M 85.304688 0.207031 " clip-rule="nonzero"/></clipPath><clipPath id="e8533d20df"><rect x="0" width="1210" y="0" height="767"/></clipPath><clipPath id="c6c65822ab"><path d="M 1035 1628 L 1475 1628 L 1475 1986 L 1035 1986 Z M 1035 1628 " clip-rule="nonzero"/></clipPath><clipPath id="348680a5b9"><path d="M 1035.511719 1832.269531 L 1384.945312 1628.964844 L 1474.214844 1782.394531 L 1124.78125 1985.699219 Z M 1035.511719 1832.269531 " clip-rule="nonzero"/></clipPath><clipPath id="3b3c161d65"><path d="M 0.289062 0.824219 L 439.292969 0.824219 L 439.292969 357.785156 L 0.289062 357.785156 Z M 0.289062 0.824219 " clip-rule="nonzero"/></clipPath><clipPath id="5267f7b638"><path d="M 0.511719 204.269531 L 349.945312 0.964844 L 439.214844 154.394531 L 89.78125 357.699219 Z M 0.511719 204.269531 " clip-rule="nonzero"/></clipPath><clipPath id="134ae6c101"><rect x="0" width="440" y="0" height="358"/></clipPath><clipPath id="419e008152"><path d="M 1296.699219 665.355469 L 1474.210938 665.355469 L 1474.210938 1776.285156 L 1296.699219 1776.285156 Z M 1296.699219 665.355469 " clip-rule="nonzero"/></clipPath><clipPath id="45c0f8c333"><path d="M 0.699219 0.355469 L 178.210938 0.355469 L 178.210938 1111.285156 L 0.699219 1111.285156 Z M 0.699219 0.355469 " clip-rule="nonzero"/></clipPath><clipPath id="91f195158f"><rect x="0" width="179" y="0" height="1112"/></clipPath><clipPath id="b8156ff510"><path d="M 1563.136719 514.460938 L 1740.648438 514.460938 L 1740.648438 1628.957031 L 1563.136719 1628.957031 Z M 1563.136719 514.460938 " clip-rule="nonzero"/></clipPath><clipPath id="9dafa5f22f"><path d="M 0.136719 0.460938 L 177.648438 0.460938 L 177.648438 1114.957031 L 0.136719 1114.957031 Z M 0.136719 0.460938 " clip-rule="nonzero"/></clipPath><clipPath id="66ae4325e6"><rect x="0" width="178" y="0" height="1115"/></clipPath><clipPath id="05fa563ab4"><path d="M 873.632812 892.742188 L 1051.144531 892.742188 L 1051.144531 1374.390625 L 873.632812 1374.390625 Z M 873.632812 892.742188 " clip-rule="nonzero"/></clipPath><clipPath id="a23066a5b8"><path d="M 0.632812 0.742188 L 178.144531 0.742188 L 178.144531 482.390625 L 0.632812 482.390625 Z M 0.632812 0.742188 " clip-rule="nonzero"/></clipPath><clipPath id="a88d21395c"><rect x="0" width="179" y="0" height="483"/></clipPath><clipPath id="70765d146d"><path d="M 0.625 479.898438 L 178.136719 479.898438 L 178.136719 1374.390625 L 0.625 1374.390625 Z M 0.625 479.898438 " clip-rule="nonzero"/></clipPath><clipPath id="977c4d638a"><path d="M 0.625 0.898438 L 178.136719 0.898438 L 178.136719 895.390625 L 0.625 895.390625 Z M 0.625 0.898438 " clip-rule="nonzero"/></clipPath><clipPath id="c010eadba3"><rect x="0" width="179" y="0" height="896"/></clipPath><clipPath id="6b7eb64e16"><path d="M 873.628906 1276.835938 L 1051.140625 1276.835938 L 1051.140625 1480 L 873.628906 1480 Z M 873.628906 1276.835938 " clip-rule="nonzero"/></clipPath><clipPath id="e9348d92f4"><path d="M 1051.140625 1378.269531 L 873.628906 1479.707031 L 873.628906 1276.835938 Z M 1051.140625 1378.269531 " clip-rule="nonzero"/></clipPath><clipPath id="df851dc2ea"><path d="M 0.628906 0.835938 L 178.140625 0.835938 L 178.140625 203.847656 L 0.628906 203.847656 Z M 0.628906 0.835938 " clip-rule="nonzero"/></clipPath><clipPath id="5f4899b79c"><path d="M 178.140625 102.269531 L 0.628906 203.707031 L 0.628906 0.835938 Z M 178.140625 102.269531 " clip-rule="nonzero"/></clipPath><clipPath id="17464d2f99"><rect x="0" width="179" y="0" height="204"/></clipPath><clipPath id="63156a66fc"><path d="M 1563.136719 1527.53125 L 1740.648438 1527.53125 L 1740.648438 1730.699219 L 1563.136719 1730.699219 Z M 1563.136719 1527.53125 " clip-rule="nonzero"/></clipPath><clipPath id="4a96bdb6d7"><path d="M 1740.648438 1628.964844 L 1563.136719 1730.402344 L 1563.136719 1527.53125 Z M 1740.648438 1628.964844 " clip-rule="nonzero"/></clipPath><clipPath id="6afd5f2e23"><path d="M 0.136719 0.53125 L 177.648438 0.53125 L 177.648438 203.539062 L 0.136719 203.539062 Z M 0.136719 0.53125 " clip-rule="nonzero"/></clipPath><clipPath id="aa787891b5"><path d="M 177.648438 101.964844 L 0.136719 203.402344 L 0.136719 0.53125 Z M 177.648438 101.964844 " clip-rule="nonzero"/></clipPath><clipPath id="ae5ac64330"><rect x="0" width="178" y="0" height="204"/></clipPath><clipPath id="0c5c407213"><path d="M 0.625 395 L 146 395 L 146 564 L 0.625 564 Z M 0.625 395 " clip-rule="nonzero"/></clipPath><clipPath id="ec735033c0"><path d="M 217.691406 521.472656 L 73.925781 605.621094 L 0.402344 480.015625 L 144.167969 395.863281 Z M 217.691406 521.472656 " clip-rule="nonzero"/></clipPath><clipPath id="ab5e2f4963"><path d="M 145.914062 563.488281 L 0.613281 479.890625 L 144.167969 395.863281 Z M 145.914062 563.488281 " clip-rule="nonzero"/></clipPath><clipPath id="c419ca875b"><path d="M 0.625 0.765625 L 146 0.765625 L 146 168.691406 L 0.625 168.691406 Z M 0.625 0.765625 " clip-rule="nonzero"/></clipPath><clipPath id="a8532d34ef"><path d="M 217.691406 126.472656 L 73.925781 210.621094 L 0.402344 85.015625 L 144.167969 0.863281 Z M 217.691406 126.472656 " clip-rule="nonzero"/></clipPath><clipPath id="496fab0c5e"><path d="M 145.914062 168.488281 L 0.613281 84.890625 L 144.167969 0.863281 Z M 145.914062 168.488281 " clip-rule="nonzero"/></clipPath><clipPath id="d67cc61deb"><rect x="0" width="146" y="0" height="169"/></clipPath><clipPath id="07c5529bd6"><path d="M 363 161 L 541 161 L 541 367 L 363 367 Z M 363 161 " clip-rule="nonzero"/></clipPath><clipPath id="ac594bd785"><path d="M 627.882812 314.988281 L 452.585938 417.691406 L 362.851562 264.53125 L 538.148438 161.828125 Z M 627.882812 314.988281 " clip-rule="nonzero"/></clipPath><clipPath id="158e6c1a95"><path d="M 540.363281 366.265625 L 363.109375 264.378906 L 538.148438 161.828125 Z M 540.363281 366.265625 " clip-rule="nonzero"/></clipPath><clipPath id="9552b29b23"><path d="M 0.105469 0.628906 L 177.386719 0.628906 L 177.386719 205.5 L 0.105469 205.5 Z M 0.105469 0.628906 " clip-rule="nonzero"/></clipPath><clipPath id="56aad9aa18"><path d="M 264.882812 153.988281 L 89.585938 256.691406 L -0.148438 103.53125 L 175.148438 0.828125 Z M 264.882812 153.988281 " clip-rule="nonzero"/></clipPath><clipPath id="0e4c322e91"><path d="M 177.363281 205.265625 L 0.109375 103.378906 L 175.148438 0.828125 Z M 177.363281 205.265625 " clip-rule="nonzero"/></clipPath><clipPath id="7bb0a90bf4"><rect x="0" width="178" y="0" height="206"/></clipPath><clipPath id="67d1de9a2c"><path d="M 633 0.660156 L 813 0.660156 L 813 207 L 633 207 Z M 633 0.660156 " clip-rule="nonzero"/></clipPath><clipPath id="490ae1c49d"><path d="M 900.316406 154.976562 L 723.925781 258.320312 L 633.636719 104.203125 L 810.027344 0.863281 Z M 900.316406 154.976562 " clip-rule="nonzero"/></clipPath><clipPath id="7ea0b2fd66"><path d="M 812.25 206.574219 L 633.894531 104.050781 L 810.027344 0.863281 Z M 812.25 206.574219 " clip-rule="nonzero"/></clipPath><clipPath id="0b8124299e"><path d="M 0.707031 0.660156 L 179.425781 0.660156 L 179.425781 206.730469 L 0.707031 206.730469 Z M 0.707031 0.660156 " clip-rule="nonzero"/></clipPath><clipPath id="08cc2e9232"><path d="M 267.316406 154.976562 L 90.925781 258.320312 L 0.636719 104.203125 L 177.027344 0.863281 Z M 267.316406 154.976562 " clip-rule="nonzero"/></clipPath><clipPath id="1ecf79bc98"><path d="M 179.25 206.574219 L 0.894531 104.050781 L 177.027344 0.863281 Z M 179.25 206.574219 " clip-rule="nonzero"/></clipPath><clipPath id="1631ae99cb"><rect x="0" width="180" y="0" height="207"/></clipPath><clipPath id="33c93d13dd"><rect x="0" width="4534" y="0" height="1988"/></clipPath><clipPath id="c9642a6316"><rect x="0" width="4534" y="0" height="1988"/></clipPath></defs><g clip-path="url(#652450d0e2)"><g transform="matrix(1, 0, 0, 1, 0.000000000000000111, 132)"><g clip-path="url(#c9642a6316)"><g clip-path="url(#9649ddcb26)"><g transform="matrix(1, 0, 0, 1, 0.000000000000000111, -0.00000000000017053)"><g clip-path="url(#33c93d13dd)"><g clip-path="url(#32c02d770b)"><g transform="matrix(1, 0, 0, 1, 1827, 114)"><g clip-path="url(#24c1bbbe5f)"><g fill="#ffffff" fill-opacity="1"><g transform="translate(0.310314, 1318.17853)"><g><path d="M 413.8125 13.34375 C 362.195312 13.34375 314.140625 7.113281 269.640625 -5.34375 C 225.148438 -17.800781 186.21875 -36.265625 152.84375 -60.734375 C 119.46875 -85.203125 92.546875 -115.898438 72.078125 -152.828125 C 51.609375 -189.765625 38.707031 -232.265625 33.375 -280.328125 L 233.59375 -280.328125 C 240.71875 -242.941406 259.851562 -213.570312 291 -192.21875 C 322.144531 -170.863281 363.082031 -160.1875 413.8125 -160.1875 C 476.988281 -160.1875 521.703125 -170.640625 547.953125 -191.546875 C 574.210938 -212.460938 587.34375 -239.828125 587.34375 -273.640625 C 587.34375 -296.785156 579.773438 -315.253906 564.640625 -329.046875 C 549.515625 -342.835938 529.9375 -353.957031 505.90625 -362.40625 C 481.882812 -370.863281 454.300781 -377.984375 423.15625 -383.765625 C 392.007812 -389.554688 359.972656 -396.234375 327.046875 -403.796875 C 294.117188 -411.359375 262.078125 -420.921875 230.921875 -432.484375 C 199.773438 -444.054688 172.1875 -459.851562 148.15625 -479.875 C 124.132812 -499.90625 104.5625 -525.492188 89.4375 -556.640625 C 74.3125 -587.785156 66.75 -626.941406 66.75 -674.109375 C 66.75 -719.492188 75.644531 -759.09375 93.4375 -792.90625 C 111.238281 -826.71875 135.929688 -855.191406 167.515625 -878.328125 C 199.109375 -901.472656 236.039062 -918.828125 278.3125 -930.390625 C 320.582031 -941.960938 365.75 -947.75 413.8125 -947.75 C 470.757812 -947.75 520.59375 -940.851562 563.3125 -927.0625 C 606.03125 -913.269531 642.070312 -893.914062 671.4375 -869 C 700.800781 -844.082031 723.9375 -814.9375 740.84375 -781.5625 C 757.75 -748.1875 768.875 -712.367188 774.21875 -674.109375 L 573.984375 -674.109375 C 566.867188 -704.359375 550.40625 -728.601562 524.59375 -746.84375 C 498.789062 -765.09375 464.085938 -774.21875 420.484375 -774.21875 C 369.753906 -774.21875 332.597656 -764.207031 309.015625 -744.1875 C 285.429688 -724.164062 273.640625 -700.804688 273.640625 -674.109375 C 273.640625 -650.078125 281.203125 -630.71875 296.328125 -616.03125 C 311.460938 -601.351562 331.039062 -589.34375 355.0625 -580 C 379.09375 -570.65625 406.679688 -562.644531 437.828125 -555.96875 C 468.972656 -549.289062 501.007812 -541.945312 533.9375 -533.9375 C 566.863281 -525.9375 598.898438 -516.148438 630.046875 -504.578125 C 661.203125 -493.003906 688.789062 -477.425781 712.8125 -457.84375 C 736.84375 -438.269531 756.421875 -413.800781 771.546875 -384.4375 C 786.671875 -355.070312 794.234375 -318.140625 794.234375 -273.640625 C 794.234375 -233.597656 786 -196.222656 769.53125 -161.515625 C 753.070312 -126.804688 728.820312 -96.328125 696.78125 -70.078125 C 664.75 -43.828125 624.925781 -23.359375 577.3125 -8.671875 C 529.707031 6.003906 475.207031 13.34375 413.8125 13.34375 Z M 413.8125 13.34375 "/></g></g></g><g fill="#ffffff" fill-opacity="1"><g transform="translate(737.102658, 1318.17853)"><g><path d="M 93.4375 -934.40625 L 293.671875 -934.40625 L 293.671875 0 L 93.4375 0 Z M 93.4375 -934.40625 "/></g></g></g><g fill="#ffffff" fill-opacity="1"><g transform="translate(1026.740929, 1318.17853)"><g><path d="M 327.046875 -934.40625 L 573.984375 -934.40625 L 907.703125 0 L 700.796875 0 L 640.734375 -173.53125 L 260.296875 -173.53125 L 200.234375 0 L -6.671875 0 Z M 575.328125 -353.734375 L 453.859375 -707.46875 L 447.171875 -707.46875 L 325.703125 -353.734375 Z M 575.328125 -353.734375 "/></g></g></g><g clip-path="url(#6a7e814431)"><g fill="#ffffff" fill-opacity="1"><g transform="translate(1830.272441, 1318.17853)"><g><path d="M 93.4375 -934.40625 L 293.671875 -934.40625 L 293.671875 -520.59375 L 627.390625 -934.40625 L 860.984375 -934.40625 L 487.21875 -473.875 L 881 0 L 647.40625 0 L 293.671875 -427.15625 L 293.671875 0 L 93.4375 0 Z M 93.4375 -934.40625 "/></g></g></g></g></g></g></g><g clip-path="url(#8acd4f165b)"><g clip-path="url(#bdb1c3623b)"><g transform="matrix(1, 0, 0, 1, 453, 161)"><g clip-path="url(#aff67ee443)"><g clip-path="url(#c7fc7dfaa7)"><g clip-path="url(#f215681a2e)"><path fill="#ffffff" d="M 84.695312 0.832031 L 1018.941406 507.925781 L 934.257812 663.9375 L 0.015625 156.84375 Z M 84.695312 0.832031 " fill-opacity="1" fill-rule="nonzero"/></g></g></g></g></g></g><g clip-path="url(#b162ba3e0e)"><g clip-path="url(#97f58ebda6)"><g transform="matrix(1, 0, 0, 1, 723, -0.00000000000017053)"><g clip-path="url(#aeaa2d844a)"><g clip-path="url(#d12aa8b2c3)"><g clip-path="url(#ad0b6d4520)"><path fill="#ffffff" d="M 85.351562 0.863281 L 1017.765625 506.964844 L 933.085938 662.976562 L 0.667969 156.875 Z M 85.351562 0.863281 " fill-opacity="1" fill-rule="nonzero"/></g></g></g></g></g></g><g clip-path="url(#fb33e2f2fe)"><g clip-path="url(#d55a4c36de)"><g transform="matrix(1, 0, 0, 1, 59, 395)"><g clip-path="url(#14fbbf5ba9)"><g clip-path="url(#3546f7459c)"><g clip-path="url(#a2b57602c6)"><path fill="#ffffff" d="M 85.273438 0.875 L 992.09375 493.082031 L 907.410156 649.09375 L 0.589844 156.886719 Z M 85.273438 0.875 " fill-opacity="1" fill-rule="nonzero"/></g></g></g></g></g></g><g clip-path="url(#995a071b1c)"><g clip-path="url(#bfb6b32bd9)"><g transform="matrix(1, 0, 0, 1, 0.000000000000000111, 1221)"><g clip-path="url(#e8533d20df)"><g clip-path="url(#e22b27a2dc)"><g clip-path="url(#185c130531)"><path fill="#ffffff" d="M 85.304688 0.207031 L 1209.6875 610.507812 L 1125.007812 766.519531 L 0.625 156.222656 Z M 85.304688 0.207031 " fill-opacity="1" fill-rule="nonzero"/></g></g></g></g></g></g><g clip-path="url(#c6c65822ab)"><g clip-path="url(#348680a5b9)"><g transform="matrix(1, 0, 0, 1, 1035, 1628)"><g clip-path="url(#134ae6c101)"><g clip-path="url(#3b3c161d65)"><g clip-path="url(#5267f7b638)"><path fill="#ffffff" d="M 0.511719 204.269531 L 349.933594 0.972656 L 439.203125 154.402344 L 89.78125 357.699219 Z M 0.511719 204.269531 " fill-opacity="1" fill-rule="nonzero"/></g></g></g></g></g></g><g clip-path="url(#419e008152)"><g transform="matrix(1, 0, 0, 1, 1296, 665)"><g clip-path="url(#91f195158f)"><g clip-path="url(#45c0f8c333)"><path fill="#ffffff" d="M 0.699219 1111.285156 L 0.699219 0.445312 L 178.210938 0.445312 L 178.210938 1111.285156 Z M 0.699219 1111.285156 " fill-opacity="1" fill-rule="nonzero"/></g></g></g></g><g clip-path="url(#b8156ff510)"><g transform="matrix(1, 0, 0, 1, 1563, 514)"><g clip-path="url(#66ae4325e6)"><g clip-path="url(#9dafa5f22f)"><path fill="#ffffff" d="M 0.136719 1114.957031 L 0.136719 0.652344 L 177.648438 0.652344 L 177.648438 1114.957031 Z M 0.136719 1114.957031 " fill-opacity="1" fill-rule="nonzero"/></g></g></g></g><g clip-path="url(#05fa563ab4)"><g transform="matrix(1, 0, 0, 1, 873, 892)"><g clip-path="url(#a88d21395c)"><g clip-path="url(#a23066a5b8)"><path fill="#ffffff" d="M 0.632812 482.390625 L 0.632812 0.472656 L 178.144531 0.472656 L 178.144531 482.390625 Z M 0.632812 482.390625 " fill-opacity="1" fill-rule="nonzero"/></g></g></g></g><g clip-path="url(#70765d146d)"><g transform="matrix(1, 0, 0, 1, 0.000000000000000111, 479)"><g clip-path="url(#c010eadba3)"><g clip-path="url(#977c4d638a)"><path fill="#ffffff" d="M 0.621094 895.390625 L 0.621094 0.894531 L 178.136719 0.894531 L 178.136719 895.390625 Z M 0.621094 895.390625 " fill-opacity="1" fill-rule="nonzero"/></g></g></g></g><g clip-path="url(#6b7eb64e16)"><g clip-path="url(#e9348d92f4)"><g transform="matrix(1, 0, 0, 1, 873, 1276)"><g clip-path="url(#17464d2f99)"><g clip-path="url(#df851dc2ea)"><g clip-path="url(#5f4899b79c)"><path fill="#fbf9ec" d="M 178.140625 0.835938 L 178.140625 204.003906 L 0.628906 204.003906 L 0.628906 0.835938 Z M 178.140625 0.835938 " fill-opacity="1" fill-rule="nonzero"/></g></g></g></g></g></g><g clip-path="url(#63156a66fc)"><g clip-path="url(#4a96bdb6d7)"><g transform="matrix(1, 0, 0, 1, 1563, 1527)"><g clip-path="url(#ae5ac64330)"><g clip-path="url(#6afd5f2e23)"><g clip-path="url(#aa787891b5)"><path fill="#fbf9ec" d="M 177.648438 0.53125 L 177.648438 203.699219 L 0.136719 203.699219 L 0.136719 0.53125 Z M 177.648438 0.53125 " fill-opacity="1" fill-rule="nonzero"/></g></g></g></g></g></g><g clip-path="url(#0c5c407213)"><g clip-path="url(#ec735033c0)"><g clip-path="url(#ab5e2f4963)"><g transform="matrix(1, 0, 0, 1, 0.000000000000000111, 395)"><g clip-path="url(#d67cc61deb)"><g clip-path="url(#c419ca875b)"><g clip-path="url(#a8532d34ef)"><g clip-path="url(#496fab0c5e)"><path fill="#ffffff" d="M 217.691406 126.472656 L 73.925781 210.621094 L 0.402344 85.015625 L 144.167969 0.863281 Z M 217.691406 126.472656 " fill-opacity="1" fill-rule="nonzero"/></g></g></g></g></g></g></g></g><g clip-path="url(#07c5529bd6)"><g clip-path="url(#ac594bd785)"><g clip-path="url(#158e6c1a95)"><g transform="matrix(1, 0, 0, 1, 363, 161)"><g clip-path="url(#7bb0a90bf4)"><g clip-path="url(#9552b29b23)"><g clip-path="url(#56aad9aa18)"><g clip-path="url(#0e4c322e91)"><path fill="#ffffff" d="M 264.882812 153.988281 L 89.585938 256.691406 L -0.148438 103.53125 L 175.148438 0.828125 Z M 264.882812 153.988281 " fill-opacity="1" fill-rule="nonzero"/></g></g></g></g></g></g></g></g><g clip-path="url(#67d1de9a2c)"><g clip-path="url(#490ae1c49d)"><g clip-path="url(#7ea0b2fd66)"><g transform="matrix(1, 0, 0, 1, 633, -0.00000000000017053)"><g clip-path="url(#1631ae99cb)"><g clip-path="url(#0b8124299e)"><g clip-path="url(#08cc2e9232)"><g clip-path="url(#1ecf79bc98)"><path fill="#ffffff" d="M 267.316406 154.976562 L 90.925781 258.320312 L 0.636719 104.203125 L 177.027344 0.863281 Z M 267.316406 154.976562 " fill-opacity="1" fill-rule="nonzero"/></g></g></g></g></g></g></g></g></g></g></g></g></g></g></svg>